<?xml version="1.0" encoding="utf-8"?>
<!-- Generator: Adobe Illustrator 16.0.0, SVG Export Plug-In . SVG Version: 6.00 Build 0)  -->
<!DOCTYPE svg PUBLIC "-//W3C//DTD SVG 1.1//EN" "http://www.w3.org/Graphics/SVG/1.1/DTD/svg11.dtd">
<svg version="1.1" id="Layer_1" xmlns="http://www.w3.org/2000/svg" xmlns:xlink="http://www.w3.org/1999/xlink" x="0px" y="0px"
	 width="293.914px" height="285px" viewBox="0 0 293.914 285" enable-background="new 0 0 293.914 285" xml:space="preserve">
<g>
	<path fill="#FFFFFF" d="M34.518,162.364c-5.034-0.113-9.062-4.325-8.947-9.359l0.527-23.398c0.112-5.034,4.325-9.061,9.36-8.948
		l15.991,0.36c5.034,0.114,9.101,2.562,9.035,5.439c-0.064,2.879-3.684,5.154-8.044,5.056c-4.359-0.098-7.908,0.395-8.011,3.607
		c-0.113,3.603,2.56,3.845,5.791,3.917c3.232,0.073,5.823,2.488,5.758,5.366c-0.065,2.879-2.763,5.068-5.993,5.102
		c-6.183,0.064-5.943,2.838-6.025,6.469c-0.082,3.629-4.268,6.508-9.302,6.394L34.518,162.364z"/>
	<path fill="#FFFFFF" d="M60.247,143.122c-0.745-0.433-1.401-1.045-1.699-1.587c-0.613-1.116-0.643-2.538-0.424-3.765
		c0.408-2.292,1.921-4.577,3.95-5.734c1.393-0.794,3.619-1.521,5.23-1.5c0.002,0,1.656-0.592,7.702-0.455
		c5.758,0.129,9.975,1.455,12.653,3.977c2.678,2.521,3.96,6.314,3.845,11.379l-0.203,9.049c-0.113,5.035-4.007,9.068-8.651,8.964
		c-2.237-0.052-4.521-0.105-6.69-0.701c-2.182-0.599-3.323-0.81-5.49,0.104c-3.378,1.424-8.128,0.551-10.729-2.095
		c-1.639-1.668-2.43-3.741-2.374-6.22c0.062-2.824,1.154-5.102,3.271-6.83c2.117-1.73,4.853-2.557,8.204-2.48
		c1.969,0.043,3.885,0.342,5.751,0.895c0.033-1.529-0.526-2.736-1.684-3.62c-1.155-0.882-2.781-1.347-4.877-1.395
		c-2.018-0.043-3.687,2.169-5.607,2.563C61.781,143.803,60.972,143.546,60.247,143.122z M73.757,155.637
		c0.926-1.623,0.614-4.258-1.21-4.802c-3.523-1.049-5.883,3.841-2.504,5.638C71.833,157.425,73.103,156.781,73.757,155.637z"/>
	<path fill="#FFFFFF" d="M93.378,160.393c-0.062-0.358-0.014-0.81,0.163-1.395c0.397-1.314,1.305-2.628,2.382-3.477
		c0.614-0.484,2.917-1.811,3.746-1.338c0,0,0,0,1.62,0.92c1.62,0.924,3.223,1.399,4.808,1.437c0.983,0.022,1.777-0.181,2.378-0.604
		c0.602-0.422,0.912-0.979,0.928-1.672c0.015-0.676-0.223-1.269-0.713-1.781c-0.49-0.514-1.803-1.103-3.938-1.771
		c-2.154-0.668-3.916-1.387-5.283-2.155c-1.368-0.771-2.497-1.886-3.385-3.345c-0.886-1.46-1.312-3.037-1.273-4.732
		c0.074-3.279,1.539-5.794,4.394-7.543c2.856-1.75,6.826-2.567,11.91-2.452c3.067,0.069,6.129,0.447,9.156,0.929
		c1.594,0.256,4.204,0.375,4.77,2.286c0.6,2.035-1.844,3.633-3.33,4.484c-2.077,1.188-4.069,0.329-6.248,0.064
		c-1.5-0.182-4.352-0.34-4.399,1.805c-0.016,0.674,0.23,1.264,0.739,1.768c0.509,0.504,1.877,1.063,4.105,1.677
		c2.265,0.616,4.13,1.307,5.6,2.068c1.469,0.763,2.628,1.882,3.479,3.359c0.852,1.479,1.255,3.155,1.212,5.031
		c-0.075,3.389-1.507,6.032-4.292,7.929c-2.787,1.896-6.357,2.796-10.712,2.697c-3.229-0.073-6.649-0.333-9.843-0.841
		c-2.04-0.323-3.957-1.104-5.901-1.768C94.276,161.573,93.525,161.229,93.378,160.393z"/>
	<path fill="#FFFFFF" d="M138.115,122.973c4.651,0.104,8.392,3.135,8.311,6.736c-0.031,1.387,0.45,2.809,1.889,3.229
		c1.92,0.565,4.434-1.37,6.572-1.307c3.493,0.102,7.756,1.133,10.237,3.762c2.11,2.235,3.121,5.302,3.033,9.201l-0.263,11.618
		c-0.112,5.033-3.797,9.072-8.186,8.974c-4.391-0.1-7.889-4.3-7.775-9.334l0.017-0.716c0.053-2.346,0.055-4.69-0.027-7.036
		c-0.059-1.688,0.457-3.977-0.305-5.52c-1.111-2.243-4.371-0.988-5.258,0.646c-1.131,2.082-0.348,4.949-0.391,7.205
		c-0.034,1.762-0.09,3.521-0.129,5.281c-0.114,5.034-4.014,9.068-8.665,8.963c-4.652-0.104-8.366-4.311-8.254-9.344l0.528-23.399
		C129.563,126.9,133.462,122.867,138.115,122.973z"/>
	<path fill="#FFFFFF" d="M180.193,129.783c-1.676-0.038-3.106-0.676-4.291-1.915c-1.184-1.238-1.756-2.696-1.719-4.372
		c0.039-1.678,0.676-3.095,1.914-4.255c1.238-1.16,2.695-1.723,4.373-1.685c1.676,0.037,3.094,0.664,4.254,1.878
		c1.162,1.216,1.726,2.66,1.687,4.338c-0.037,1.676-0.664,3.106-1.879,4.29C183.316,129.247,181.872,129.821,180.193,129.783z"/>
	<path fill="#FFFFFF" d="M208.085,166.768c-5.211-0.115-9.472-1.785-12.778-5.004c-3.312-3.22-4.908-7.354-4.795-12.399
		c0.114-5.046,1.872-9.117,5.28-12.213c3.403-3.095,7.758-4.581,13.062-4.463c5.34,0.12,9.643,1.803,12.916,5.048
		c3.271,3.247,4.852,7.393,4.735,12.439c-0.112,5.029-1.875,9.081-5.291,12.158C217.8,165.411,213.423,166.889,208.085,166.768z
		 M208.561,145.669c-1.093-0.024-1.988,0.308-2.688,0.992s-1.062,1.585-1.088,2.694c-0.025,1.112,0.297,2.021,0.965,2.729
		s1.549,1.074,2.642,1.099c1.11,0.025,2.021-0.3,2.729-0.977c0.709-0.678,1.073-1.572,1.098-2.684
		c0.025-1.129-0.299-2.049-0.975-2.756C210.564,146.061,209.671,145.693,208.561,145.669z"/>
	<path fill="#FFFFFF" d="M238.062,134.029c2.31,0.051,5.103-0.132,7.129,1.188c1.099,0.717,1.154,1.536,2.525,1.356
		c0.963-0.127,1.924-0.808,2.795-1.213c4.445-2.07,11.512-1.551,14.967,2.226c2,2.188,2.953,5.385,2.859,9.594l-0.256,11.29
		c-0.111,5.034-3.797,9.071-8.186,8.974c-4.392-0.1-7.888-4.299-7.773-9.332c0,0,0.02-0.881,0.02-0.883
		c0.072-3.252,0.113-6.475-0.227-9.715c-0.203-1.932-0.602-4.397-3.277-3.74c-2.143,0.527-2.328,3.103-2.434,4.906
		c-0.182,3.09-0.162,6.195-0.23,9.291c-0.115,5.034-4.008,9.067-8.652,8.963s-8.352-4.31-8.237-9.343l0.328-14.6
		C229.525,137.958,233.419,133.924,238.062,134.029z"/>
	<path fill="#FFFFFF" d="M178.132,165.602c-3.604-0.082-6.489-2.898-6.414-6.263l0.464-20.569c0.075-3.362,3.086-6.046,6.688-5.966
		l2.442,0.056c3.604,0.082,6.488,2.898,6.412,6.261l-0.463,20.568c-0.076,3.363-3.086,6.047-6.689,5.967L178.132,165.602z"/>
</g>
<g>
	<g>
		<path fill="#2C2C2E" d="M289.336,149.937L13.623,197.22c5.798,15.269,14.143,29.28,24.518,41.52l241.983-41.497
			C285.729,182.488,288.96,166.566,289.336,149.937z"/>
	</g>
	<text transform="matrix(0.985 -0.1726 0.1726 0.985 71.0957 222.1084)" fill="#292929" font-family="'Pacifico'" font-size="39">coming soon</text>
	<text transform="matrix(0.985 -0.1726 0.1726 0.985 71.0957 220.1074)" fill="#168885" font-family="'Pacifico'" font-size="39">coming soon</text>
</g>
</svg>
