<?xml version="1.0" encoding="utf-8"?>
<!-- Generator: Adobe Illustrator 16.0.0, SVG Export Plug-In . SVG Version: 6.00 Build 0)  -->
<!DOCTYPE svg PUBLIC "-//W3C//DTD SVG 1.1//EN" "http://www.w3.org/Graphics/SVG/1.1/DTD/svg11.dtd">
<svg version="1.1" id="Layer_1" xmlns="http://www.w3.org/2000/svg" xmlns:xlink="http://www.w3.org/1999/xlink" x="0px" y="0px"
	 width="293.914px" height="285px" viewBox="0 0 293.914 285" enable-background="new 0 0 293.914 285" xml:space="preserve">
<g>
	<g>
		<path fill="#FFFFFF" d="M43.792,130.095c1.539,4.195-2.749,10.333-8.21,10.333c-0.001,0-0.049,0-2.247,0
			c-3.22,0-4.829,0.877-4.829,2.628c0,0.84,0.449,1.494,1.348,1.966c0.897,0.473,2.176,0.707,3.838,0.707
			c2.802,0,5.456-0.979,7.544,1.519c1.883,2.253,3.1,6.426,2.304,9.287c-1.257,4.507-7.814,4.516-11.507,4.516
			c-5.826,0-10.464-1.681-13.916-5.043c-3.452-3.361-5.178-7.5-5.178-12.412c0-5.197,1.797-9.482,5.391-12.859
			c3.594-3.377,8.162-5.065,13.703-5.065c2.396,0,4.871,0.326,7.424,0.976C41.856,127.258,43.223,128.543,43.792,130.095z"/>
		<path fill="#FFFFFF" d="M250.836,136.801c1.233,3.361-2.203,8.279-6.578,8.279c-0.002,0-0.04,0-1.802,0
			c-2.58,0-3.869,0.704-3.869,2.109c0,0.673,0.359,1.194,1.08,1.575c0.719,0.378,1.745,0.564,3.076,0.564
			c2.244,0,4.371-0.784,6.044,1.219c1.509,1.805,2.485,5.147,1.846,7.439c-1.005,3.613-6.26,3.619-9.221,3.619
			c-4.668,0-8.384-1.345-11.153-4.038c-2.764-2.695-4.147-6.012-4.147-9.949c0-4.164,1.439-7.598,4.319-10.305
			c2.881-2.705,6.54-4.059,10.981-4.059c1.92,0,3.903,0.261,5.951,0.782C249.285,134.528,250.38,135.558,250.836,136.801z"/>
		<path fill="#FFFFFF" d="M60.688,160.893c-4.284,0-7.814-1.291-10.592-3.877c-2.777-2.582-4.167-5.948-4.167-10.097
			c0-4.147,1.371-7.523,4.111-10.129c2.741-2.606,6.29-3.91,10.647-3.91c4.387,0,7.956,1.304,10.703,3.91
			c2.749,2.606,4.123,5.982,4.123,10.129c0,4.134-1.374,7.496-4.123,10.087C68.643,159.597,65.075,160.893,60.688,160.893z
			 M60.688,143.551c-0.898,0-1.628,0.289-2.191,0.865c-0.561,0.576-0.842,1.321-0.842,2.233c0,0.914,0.281,1.655,0.842,2.224
			c0.562,0.57,1.292,0.854,2.191,0.854c0.914,0,1.654-0.284,2.224-0.854c0.569-0.568,0.854-1.31,0.854-2.224
			c0-0.928-0.284-1.675-0.854-2.245C62.341,143.836,61.601,143.551,60.688,143.551z"/>
		<path fill="#FFFFFF" d="M75.663,157.716c-0.179-2.257,0.91-3.972,3.146-4.469c2.555-0.568,4.518,1.13,6.961,1.13
			c0.809,0,1.457-0.18,1.942-0.538c0.487-0.36,0.73-0.824,0.73-1.393c0-0.554-0.206-1.036-0.617-1.45
			c-0.412-0.411-1.501-0.871-3.269-1.381c-1.782-0.508-3.243-1.066-4.38-1.674c-1.138-0.606-2.085-1.501-2.842-2.684
			c-0.756-1.182-1.134-2.472-1.134-3.863c0-2.695,1.157-4.79,3.47-6.279c2.314-1.49,5.56-2.236,9.737-2.236
			c3.115,0,6.942-0.001,9.817,1.345c1.661,0.776,1.898,2.419,0.668,3.714c-1.461,1.54-4.134,1.21-6.045,1.21c0,0-0.005,0-2.036,0
			c-0.674,0-1.221,0.148-1.64,0.449c-0.42,0.299-0.629,0.681-0.629,1.145c0,0.554,0.213,1.032,0.64,1.438
			c0.428,0.402,1.562,0.837,3.404,1.301c1.871,0.466,3.417,0.996,4.638,1.596c1.221,0.598,2.194,1.496,2.92,2.696
			c0.727,1.197,1.089,2.567,1.089,4.11c0,2.785-1.126,4.983-3.381,6.592c-2.254,1.611-5.168,2.416-8.747,2.416
			c-3.364,0-6.717,0.374-10.048-0.318c-1.461-0.305-3.735-0.722-4.294-2.35C75.711,158.065,75.677,157.896,75.663,157.716z"/>
		<path fill="#FFFFFF" d="M110.402,133.442c2.235-0.003,4.604,0.141,6.613,1.176c0.969,0.501,0.248,0.905,1.716,0.732
			c1.861-0.218,3.367-1.836,5.319-2.141c2.48-0.388,4.796,0.171,6.929,1.429c0.455,0.269,4.139,2.517,3.437,3.252
			c1.542-1.617,3.088-2.8,4.638-3.55c1.55-0.748,3.299-1.123,5.246-1.123c2.935,0,5.248,0.898,6.941,2.696
			c1.692,1.797,2.538,4.328,2.538,7.591v7.883c0,5.006-2.952,9.099-6.559,9.099c-3.609,0-6.561-3.635-6.561-8.074
			c0-4.442-0.106-8.843-0.235-9.779c0,0,0,0-0.473-0.532c-0.471-0.531-1.089-0.796-1.852-0.796c-0.855,0-1.7,0.291-2.539,0.876
			v9.208c0,5.006-2.952,9.099-6.559,9.099c-3.608,0-6.56-3.635-6.56-8.074c0-4.442-0.102-8.833-0.229-9.761c0,0,0,0-0.457-0.538
			c-0.457-0.54-1.082-0.809-1.875-0.809c-0.823,0-1.669,0.307-2.538,0.919v9.164c0,5.006-3.123,9.099-6.942,9.099
			c-3.817,0-6.94-4.093-6.94-9.099v-8.849C103.461,137.541,106.58,133.448,110.402,133.442z"/>
		<path fill="#FFFFFF" d="M182.32,152.616c0.74,0.497,0.299,1.895-0.777,3.524c-0.842,1.276-2.029,2.418-3.306,3.254
			c-2.127,1.392-4.685,1.498-7.148,1.498c-4.702,0-8.483-1.306-11.342-3.92c-2.861-2.614-4.292-6.054-4.292-10.323
			c0-4.058,1.314-7.367,3.943-9.927c2.628-2.562,6.039-3.843,10.232-3.843c2.14,0,4.125,0.359,5.952,1.079
			c1.829,0.719,3.408,1.776,4.741,3.167c1.331,1.394,2.313,3.011,2.942,4.851c1.016,2.976,2.062,7.589-2.75,6.696
			c-2.644-0.489-9.543-1.749-9.261,2.748c0.107,1.696,1.849,2.188,3.239,2.184c1.734-0.007,3.966-0.452,5.631-0.941
			C181.23,152.34,181.936,152.354,182.32,152.616z M169.693,143.595c0.209,0.286,0.533,0.526,1.003,0.687
			c2.748,0.949,6.605-4.596,1.673-4.594C170.501,139.689,168.684,142.198,169.693,143.595z"/>
		<path fill="#FFFFFF" d="M205.044,133.442c1.593,0,2.896,1.708,2.896,3.796s-1.311,3.657-2.896,3.797
			c-4.072,0.358-3.893,2.204-3.893,3.8c0,4.277,0.088,6.01,6.592,3.648c1.967,0.222,0.987,4.647,0.514,6.73
			c-0.441,1.935-3.218,4.773-5.234,5.272c-4.16,1.032-8.492,1.185-11.501-1.44c-2.284-1.991-2.765-5.781-2.765-9.271
			c0-4.657,1.248-7.579-3.21-7.935c-2.072-0.167-0.549-3.868,3.388-6.954l5.349-3.833c3.939-3.086,7.861-3.6,7.861-1.474
			C202.146,131.704,203.45,133.442,205.044,133.442z"/>
		<path fill="#FFFFFF" d="M253.676,157.301c-0.027-0.037-0.055-0.073-0.08-0.111c-0.644-0.919-0.535-2.087,0.087-2.998
			c0.531-0.773,1.745-1.517,2.682-1.648c1.134-0.159,2.066,0.607,3.036,1.053c1.056,0.485,2.205,0.781,3.369,0.781
			c0.809,0,1.457-0.18,1.943-0.538c0.487-0.36,0.729-0.824,0.729-1.393c0-0.554-0.205-1.036-0.616-1.45
			c-0.414-0.411-1.502-0.871-3.271-1.381c-1.78-0.508-3.241-1.066-4.38-1.674c-1.136-0.606-2.085-1.501-2.842-2.684
			c-0.756-1.182-1.134-2.472-1.134-3.863c0-2.695,1.158-4.79,3.471-6.279c2.315-1.49,5.56-2.236,9.737-2.236
			c2.04,0,4.067,0.128,6.089,0.366c1.559,0.184,4.683,0.303,5.431,2.025c0.704,1.625-1.766,3.234-2.942,3.869
			c-1.473,0.793-3.023,0.243-4.553-0.004c-1.225-0.198-3.889-0.257-3.889,1.608c0,0.554,0.213,1.032,0.64,1.438
			c0.428,0.402,1.561,0.837,3.404,1.301c1.873,0.466,3.419,0.996,4.639,1.596c1.221,0.598,2.194,1.496,2.92,2.696
			c0.727,1.197,1.09,2.567,1.09,4.11c0,2.785-1.128,4.983-3.381,6.592c-2.255,1.611-5.169,2.416-8.749,2.416
			c-2.621,0-5.251-0.202-7.826-0.689C257.441,159.856,254.856,158.87,253.676,157.301z"/>
	</g>
	<path fill="#FFFFFF" d="M218.059,130.752c-1.398-0.03-2.593-0.563-3.58-1.598c-0.988-1.034-1.467-2.25-1.436-3.648
		c0.031-1.4,0.564-2.584,1.598-3.551c1.033-0.97,2.249-1.438,3.649-1.406c1.4,0.031,2.583,0.555,3.552,1.567
		c0.967,1.014,1.438,2.22,1.406,3.62c-0.034,1.398-0.556,2.592-1.569,3.581C220.667,130.306,219.458,130.784,218.059,130.752z"/>
	<path fill="#FFFFFF" d="M216.336,161.716c-3.007-0.068-5.412-2.545-5.347-5.504l0.409-18.093c0.067-2.957,2.581-5.321,5.588-5.254
		l2.039,0.047c3.007,0.068,5.412,2.544,5.347,5.5l-0.41,18.095c-0.064,2.959-2.581,5.321-5.587,5.253L216.336,161.716z"/>
</g>
<g>
	<g>
		<path fill="#2C2C2E" d="M290.813,146.782L15.1,194.062c5.798,15.27,14.143,29.281,24.518,41.52l241.984-41.496
			C287.208,179.332,290.438,163.41,290.813,146.782z"/>
	</g>
	<text transform="matrix(0.985 -0.1726 0.1726 0.985 72.5732 218.9551)" fill="#292929" font-family="'Pacifico'" font-size="39">coming soon</text>
	<g>
		<text transform="matrix(0.985 -0.1726 0.1726 0.985 72.5732 216.9541)" fill="#FF685D" font-family="'Pacifico'" font-size="39">coming soon</text>
	</g>
</g>
</svg>
