<?xml version="1.0" encoding="utf-8"?>
<!-- Generator: Adobe Illustrator 16.0.0, SVG Export Plug-In . SVG Version: 6.00 Build 0)  -->
<!DOCTYPE svg PUBLIC "-//W3C//DTD SVG 1.1//EN" "http://www.w3.org/Graphics/SVG/1.1/DTD/svg11.dtd">
<svg version="1.1" id="Layer_1" xmlns="http://www.w3.org/2000/svg" xmlns:xlink="http://www.w3.org/1999/xlink" x="0px" y="0px"
	 width="250.5px" height="103.5px" viewBox="0 0 250.5 103.5" enable-background="new 0 0 250.5 103.5" xml:space="preserve">
<g>
	<path fill="#FFFFFF" d="M53.082,46.16c-2.175-0.124-3.96-2.137-3.96-4.748v-6.256c0-2.611,2.137-4.748,4.748-4.748h22.1
		c2.611,0,4.748,2.136,4.748,4.748v6.256c0,2.611-1.786,4.633-3.961,4.748c-3.721,0.194-4.116,0.748-3.961,4.747v10.311
		c0,2.611-2.136,4.748-4.748,4.748h-6.256c-2.611,0-4.748-2.136-4.748-4.748V50.907C57.13,47.146,56.498,46.354,53.082,46.16z"/>
</g>
<g>
	<path fill="#FFFFFF" d="M95.812,40.987c0,1.692,1.229,1.328,2.731-0.808c0,0,1.759-2.501,5.238-2.501
		c1.941,0,3.542,0.637,4.8,1.912c1.258,1.274,1.887,2.889,1.887,4.846c0,2.051-0.618,3.709-1.853,4.975
		c-1.234,1.267-2.847,1.899-4.834,1.899c-2.268,0-4.21-0.854-5.825-2.564c-1.429,1.212-2.144,3.464-2.144,6.757v5.715
		c0,2.611-2.136,4.748-4.748,4.748H86.16c-2.611,0-4.748-2.136-4.748-4.748V42.659c0-2.611,2.137-4.748,4.748-4.748h4.904
		C93.676,37.911,95.812,39.295,95.812,40.987z"/>
</g>
<g>
	<path fill="#FFFFFF" d="M191.439,71.764c0,1.641,1.193,1.288,2.65-0.784c0,0,1.705-2.426,5.082-2.426
		c1.883,0,3.436,0.618,4.656,1.854c1.221,1.235,1.83,2.802,1.83,4.701c0,1.989-0.6,3.598-1.797,4.826
		c-1.197,1.229-2.762,1.842-4.689,1.842c-2.201,0-4.084-0.829-5.65-2.487c-1.387,1.177-2.082,3.361-2.082,6.556v5.544
		c0,2.534-2.072,4.605-4.605,4.605h-4.756c-2.533,0-4.607-2.072-4.607-4.605V73.386c0-2.534,2.074-4.606,4.607-4.606h4.756
		C189.367,68.78,191.439,70.122,191.439,71.764z"/>
</g>
<g>
	<path fill="#FFFFFF" d="M140.705,37.911c2.611,0,4.748,2.137,4.748,4.748v18.559c0,2.611-2.136,4.748-4.748,4.748h-4.299
		c-2.611,0-4.748-1.106-4.748-2.458c0-1.345-0.021-2.447-0.046-2.458c-0.282-0.117-1.526,1.677-1.706,1.882
		c-1.331,1.527-2.77,2.211-4.704,2.784c-1.229,0.363-2.516,0.509-3.795,0.471c-2.416-0.072-4.775-0.888-6.537-2.596
		c-1.794-1.739-2.692-4.178-2.692-7.316V42.659c0-2.611,2.137-4.748,4.748-4.748h4.112c2.611,0,4.748,2.137,4.748,4.748v5.627
		c0,1.516,0.068,3.028,0.205,4.538c0.098,1.089-0.068,2.486,0.491,3.458c0.763,1.33,4.547,0.737,4.547-0.918
		c0-0.002,0-12.705,0-12.705c0-2.611,2.136-4.748,4.748-4.748H140.705z"/>
</g>
<g>
	<path fill="#FFFFFF" d="M167.721,37.911c1.653,0,3.006,1.772,3.006,3.938c0,2.167-1.353,3.939-3.006,3.939
		c-1.652,0-4.046,0.747-4.046,2.399c-0.003,1.569-0.617,5.695,1.424,6.396c1.673,0.574,4.614-2.369,6.19-1.064
		c1.373,1.139,3.539,9.491-4.583,12.06c-5.062,1.601-11.467,0.086-14.502-4.357c-1.336-1.955-1.889-4.302-1.889-6.651v-4.036
		c0-2.611-1.321-4.748-2.937-4.748c-1.614,0-1.254-1.318,0.8-2.93l12.799-10.033c2.056-1.61,3.737-1.125,3.737,1.079
		C164.716,36.108,166.068,37.911,167.721,37.911z"/>
</g>
<g>
	<path fill="#FFFFFF" d="M184.029,30.409c2.611,0,4.748,2.136,4.748,4.748v1.666c0,2.611,1.693,3.444,3.762,1.852
		c0,0,1.295-0.996,4.742-0.996c3.186,0,5.697,0.933,7.537,2.796c1.842,1.864,2.762,4.459,2.762,7.783v12.96
		c0,2.611-2.137,4.748-4.748,4.748h-4.111c-2.611,0-4.748-2.136-4.748-4.748c0,0,0-6.72,0-6.722c0-1.638,0.162-3.255,0.004-4.893
		c-0.09-0.909-0.178-1.772-0.656-2.571c-0.543-0.906-1.059-0.826-2.074-0.826c-3.158,0-2.471,3.528-2.486,5.666
		c-0.018,2.521,0.027,5.042,0.016,7.564c-0.004,0.594,0.002,1.187,0.002,1.782c0,2.611-2.137,4.748-4.748,4.748h-4.93
		c-2.609,0-4.746-2.136-4.746-4.748V35.156c0-2.611,2.137-4.748,4.746-4.748H184.029z"/>
</g>
<g>
	<path fill="#FFFFFF" d="M33.236,91.099c0,2.526-2.066,4.593-4.593,4.593h-6.051c-2.526,0-4.593-2.066-4.593-4.593v-25.21
		c0-2.526,2.067-4.592,4.593-4.592h6.051c2.526,0,4.593,2.066,4.593,4.592v3.415c0,2.526,1.745,4.592,3.877,4.592
		c2.132,0,3.876-2.066,3.876-4.592v-3.415c0-2.526,2.067-4.592,4.593-4.592h6.05c2.526,0,4.593,2.066,4.593,4.592v25.21
		c0,2.526-2.066,4.593-4.593,4.593h-6.05c-2.526,0-4.593-2.066-4.593-4.593v-3.595c0-2.526-1.744-4.593-3.876-4.593
		c-2.133,0-3.877,2.067-3.877,4.593V91.099z"/>
</g>
<g>
	<path fill="#FFFFFF" d="M87.35,68.554c2.526,0,4.593,2.066,4.593,4.592v17.953c0,2.526-2.067,4.593-4.593,4.593h-4.159
		c-2.526,0-4.592-1.07-4.592-2.378c0-1.308-0.021-2.377-0.046-2.377s-1.29,1.346-2.81,2.99c0,0,0,0-1.428,0.797
		c-1.428,0.796-3.125,1.194-5.095,1.194c-2.84,0-5.127-0.843-6.862-2.525c-1.736-1.682-2.604-4.041-2.604-7.076V73.146
		c0-2.526,2.067-4.592,4.592-4.592h3.978c2.526,0,4.593,2.066,4.593,4.592v5.443c0,1.607,0.078,3.215,0.261,4.812
		c0.121,1.046-0.189,2.596,0.776,3.325c1.207,0.912,3.595-0.039,4.031-1.415c0.253-0.796-0.041-1.897-0.003-2.739
		c0.112-2.5,0-5.026-0.002-7.53c0-0.632,0.008-1.264,0.008-1.896c0-2.526,2.067-4.592,4.593-4.592H87.35z"/>
</g>
<g>
	<path fill="#FFFFFF" d="M104.785,61.296c2.526,0,4.593,1.82,4.593,4.046c0,2.419,1.577,3.135,3.705,2.985
		c4.109-0.289,8.182,0.87,11.126,3.832c2.539,2.555,3.81,5.771,3.81,9.647c0,3.907-1.33,7.199-3.99,9.872
		c-2.66,2.675-6.401,4.013-11.225,4.013h-12.763c-2.526,0-4.593-2.066-4.593-4.593v-25.21c0-2.526,2.067-4.592,4.593-4.592H104.785z
		 M108.91,81.157c-0.206,0.478-0.312,0.999-0.283,1.527c0.216,3.895,6.025,3.589,6.025-0.381
		C114.652,78.909,110.248,78.048,108.91,81.157z"/>
</g>
<g>
	<path fill="#FFFFFF" d="M130.447,88.907c0-2.028,0.718-3.76,2.153-5.195c1.435-1.435,3.167-2.153,5.195-2.153
		c2.014,0,3.738,0.718,5.173,2.153c1.436,1.435,2.153,3.167,2.153,5.195c0,2.014-0.717,3.743-2.153,5.184
		c-1.435,1.443-3.159,2.163-5.173,2.163c-2.028,0-3.76-0.72-5.195-2.163C131.165,92.649,130.447,90.921,130.447,88.907z"/>
</g>
<text transform="matrix(1 0 0 1 87.5425 32.9365)" fill="#FF685D" font-family="'Pacifico'" font-size="34.1825">the</text>
<g>
	<path fill="#FFFFFF" d="M161.571,95.893c-4.134,0-7.541-1.246-10.222-3.739c-2.682-2.493-4.022-5.742-4.022-9.745
		c0-4.004,1.323-7.264,3.969-9.779c2.645-2.515,6.069-3.773,10.275-3.773c4.235,0,7.68,1.258,10.333,3.773
		c2.652,2.515,3.977,5.774,3.977,9.779c0,3.989-1.324,7.234-3.977,9.734C169.251,94.644,165.807,95.893,161.571,95.893z
		 M161.571,79.156c-0.866,0-1.571,0.278-2.113,0.834c-0.542,0.557-0.812,1.276-0.812,2.158s0.271,1.597,0.812,2.147
		c0.542,0.549,1.247,0.823,2.113,0.823c0.883,0,1.599-0.274,2.147-0.823c0.549-0.55,0.824-1.265,0.824-2.147
		c0-0.896-0.275-1.619-0.824-2.168C163.17,79.431,162.454,79.156,161.571,79.156z"/>
</g>
<g>
	<path fill="#FFFFFF" d="M227.154,68.307h-5.08c-3.352,0-5.727,0.125-7.127,0.376s-2.678,0.72-3.826,1.404
		c-1.15,0.686-2.154,1.779-3.016,3.278c-0.859,1.5-1.289,3.293-1.289,5.379c0,3.167,1.01,5.695,3.027,7.583
		c2.318,2.17,5.158,2.619,8.215,2.308c1.318-0.134,5.344-1.847,5.979,0.222c1.287,4.189-9.045,2.115-10.629,1.833
		c-3.473-0.619-6.812,0.8-6.418,4.863c0.246,2.55,0.951,4.746,3.385,6.026c2.377,1.25,5.012,1.747,7.672,1.877
		c5.58,0.274,12.164-0.625,14.184-6.656c0.617-1.848,0.898-3.869,1.061-5.807c0.213-2.557,0.369-5.133,0.371-7.701
		c0.002-2.372,0.062-4.758-0.01-7.128c-0.059-2.009-0.15-4.055-1.586-5.614C230.779,69.155,229.068,68.307,227.154,68.307z
		 M219.385,81.147c-1.572,0-2.848-1.275-2.848-2.848c0-1.573,1.275-2.849,2.848-2.849s2.85,1.276,2.85,2.849
		C222.234,79.872,220.957,81.147,219.385,81.147z"/>
</g>
</svg>
